Coordinates
version=1
nRows=13
nColumns=36
inDegrees=yes

Units are S.I. units (second, meters, Newtons, ...)
If the header above contains a line with 'inDegrees', this indicates whether rotational values are in degrees (yes) or radians (no).

endheader
time	pelvis_tilt	pelvis_list	pelvis_rotation	pelvis_tx	pelvis_ty	pelvis_tz	hip_flexion_r	hip_adduction_r	hip_rotation_r	knee_angle_r	knee_angle_r_beta	ankle_angle_r	subtalar_angle_r	mtp_angle_r	hip_flexion_l	hip_adduction_l	hip_rotation_l	knee_angle_l	knee_angle_l_beta	ankle_angle_l	subtalar_angle_l	mtp_angle_l	lumbar_extension	lumbar_bending	lumbar_rotation	arm_flex_r	arm_add_r	arm_rot_r	elbow_flex_r	pro_sup_r	arm_flex_l	arm_add_l	arm_rot_l	elbow_flex_l	pro_sup_l
      1.38333330	      1.06495948	     -0.95321211	     -1.70345221	     -0.07897282	      1.26179954	     -0.09932593	      4.17292049	      0.01572097	     -5.54275328	     12.46152374	      0.21749462	     15.88586329	     -9.36309991	     -7.49999831	      4.17829688	     -2.04737021	     -2.00368225	     16.60079593	      0.28973855	     13.71687628	     -8.70353817	     -7.49999831	    -17.82198416	      2.97989055	     -2.83767799	     33.36697597	     -5.56397706	     61.28982107	     40.44700967	     78.54973449	     32.29658505	     -9.00749611	     46.73651799	     52.76322662	     71.73525218
      1.40000000	      0.83567277	     -0.96949458	     -1.69784150	     -0.06880260	      1.26099134	     -0.09566584	      4.41162471	     -0.00057815	     -5.69622077	     12.40524575	      0.21651238	     15.80027558	     -9.33140270	     -7.49999832	      4.45218653	     -2.03218785	     -2.05329943	     16.52419192	      0.28840156	     13.69442154	     -8.72991986	     -7.49999832	    -18.09733971	      3.17491616	     -2.35718438	     34.11770558	     -4.37296602	     61.24934812	     40.95884894	     78.56353699	     32.83177220	     -8.14896056	     46.79465003	     53.30811617	     71.72557063
      1.41666670	      0.42389263	     -1.05757374	     -1.85377482	     -0.08897959	      1.25629526	     -0.09612995	      5.32247983	      0.03794212	     -5.77516699	     12.81149403	      0.22360275	     15.71416699	     -9.17535206	     -7.49999840	      5.47437072	     -2.14027873	     -2.18305612	     17.17185424	      0.29970540	     13.79439794	     -8.97194312	     -7.49999840	    -19.16999423	      3.48609337	     -1.19646136	     36.14829410	     -3.92608507	     60.76368036	     41.45826377	     78.30976672	     34.50278050	     -7.73042518	     47.26992695	     55.22217310	     71.40803992
      1.43333330	      0.17821655	     -1.09939581	     -1.95116932	     -0.07877456	      1.26022053	     -0.09259667	      5.77324227	      0.05067302	     -5.84961527	     12.99198862	      0.22675298	     15.55093223	     -9.15883612	     -7.49999845	      5.87987719	     -2.21291800	     -2.25585394	     17.23675023	      0.30083804	     13.54550932	     -9.41194736	     -7.49999845	    -19.91097952	      3.57272789	     -0.40723006	     36.30275294	     -2.94732205	     59.72438952	     40.06150035	     78.18994254	     34.48470575	     -7.23884751	     47.65966311	     54.75818394	     70.98402400
      1.45000000	     -0.44236657	     -1.13465392	     -1.95311398	     -0.08805737	      1.25878778	     -0.09622264	      6.78579250	      0.06330093	     -5.90818799	     13.19776445	      0.23034444	     15.42506593	     -9.17253320	     -7.49999851	      6.94773185	     -2.30953772	     -2.28374376	     17.72197216	      0.30930676	     13.43113764	     -9.62522763	     -7.49999851	    -20.38507106	      3.78236774	      0.29769302	     36.12393239	     -2.41566218	     58.94744107	     37.83197217	     77.70750961	     34.01638388	     -6.05013105	     48.06848689	     52.28275247	     70.54319503
      1.46666670	     -1.28638939	     -1.09941470	     -2.06552029	     -0.09704056	      1.25761273	     -0.10012572	      8.21121583	     -0.06078830	     -5.93561936	     13.70046866	      0.23911829	     15.23806191	     -9.26102540	     -7.49999872	      8.35354069	     -2.30860127	     -2.32721020	     18.18604399	      0.31740635	     13.36610559	     -9.85127258	     -7.49999872	    -20.77558812	      3.89109615	      1.24517992	     35.32348194	     -2.28066922	     55.79431856	     35.72039854	     74.90214856	     33.38116888	     -4.84411196	     48.65566371	     49.21960763	     68.85242336
      1.48333330	     -2.10768205	     -1.15001282	     -1.93612712	     -0.09655714	      1.25627071	     -0.10007331	      9.58382008	     -0.09601510	     -6.00322877	     14.16288699	      0.24718901	     15.03391869	     -9.22675875	     -7.49999879	      9.71063201	     -2.36289545	     -2.17166406	     18.49897582	      0.32286804	     13.29534285	    -10.16102824	     -7.49999879	    -21.09303752	      4.28679520	      1.57994557	     34.27982738	     -1.99040830	     54.16877577	     32.41847343	     73.11967769	     30.87961079	     -3.84716775	     48.25839498	     43.84070279	     67.79191027
      1.50000000	     -3.18501642	     -1.15120533	     -1.69768409	     -0.10540699	      1.24437089	     -0.10403630	     11.41639579	     -0.24219524	     -6.09872568	     14.79516332	      0.25822431	     14.93865470	     -9.19981880	     -7.49999884	     11.62963253	     -2.30852831	     -1.76266920	     19.13877338	      0.33403461	     13.65961355	    -10.34055278	     -7.49999884	    -21.18594657	      4.58472345	      1.20440073	     33.35695967	     -2.09117748	     52.33802556	     29.97489020	     72.10378915	     29.21907197	     -3.40219852	     47.24988361	     39.69521338	     67.24335258
      1.51666670	     -4.63745499	     -1.02932519	     -1.61768120	     -0.11413948	      1.23240418	     -0.10767289	     14.07059022	     -0.58469766	     -5.85043816	     15.96114008	      0.27857445	     14.83402533	     -9.48582222	     -7.49999893	     14.18976108	     -2.16486215	     -1.36443047	     20.18227418	      0.35224714	     13.80225181	    -10.80440084	     -7.49999893	    -21.09388352	      4.61136347	      0.91806544	     32.25060831	     -2.51905226	     48.21525933	     27.74184749	     70.20012391	     26.99630941	     -3.07875554	     44.15705799	     35.32206625	     66.50267757
      1.53333330	     -4.82480339	     -1.05878064	     -1.53736317	     -0.07235239	      1.22343758	     -0.09200029	     14.21610979	     -0.59511733	     -6.00844248	     16.07205387	      0.28051026	     15.44956520	     -9.24099078	     -7.49999904	     14.44436224	     -2.29744331	     -1.26682902	     20.63531823	      0.36015425	     14.06576673	    -11.17261388	     -7.49999904	    -21.10274623	      4.30566150	      0.35806737	     28.73159089	     -2.71411978	     42.82343754	     25.91521956	     67.54998177	     22.21825469	     -3.40054322	     38.74108002	     30.83444693	     66.14170787
      1.55000000	     -5.11080565	     -1.03491557	     -1.45443846	     -0.06264704	      1.21288950	     -0.08821912	     14.27399982	     -0.60562183	     -6.25963560	     16.11396217	      0.28124170	     16.31943137	     -8.93612214	     -7.49999907	     14.58171446	     -2.43648068	     -1.17256312	     21.24069888	      0.37072013	     14.17029479	    -11.14994336	     -7.49999907	    -20.57484997	      3.78738088	     -0.13441000	     25.63380005	     -3.11428840	     40.55822521	     22.85910408	     66.61312232	     18.17045486	     -4.10255658	     36.17315204	     26.16119182	     66.19291389
      1.56666670	     -5.46439530	     -0.96521801	     -1.42292078	     -0.07231880	      1.21726457	     -0.09210415	     14.66422921	     -0.63356687	     -6.27099077	     16.50883235	      0.28813348	     16.96311921	     -8.96424539	     -7.49999908	     14.90239108	     -2.53425529	     -1.22803609	     21.90366738	      0.38229111	     14.42924980	    -10.80858592	     -7.49999908	    -20.50577206	      3.29423576	     -0.34899014	     23.47711905	     -3.98314115	     38.37293323	     19.85631301	     65.75764641	     15.03520947	     -4.86750027	     33.68661039	     21.77483322	     66.25717460
      1.58333330	     -6.00536716	     -0.88277305	     -1.41166695	     -0.08215824	      1.21296354	     -0.09541621	     15.52648663	     -0.73447917	     -6.15477821	     17.31312138	      0.30217097	     17.49818477	     -9.38200793	     -7.49999924	     15.77730437	     -2.53397223	     -1.21170035	     22.75446620	      0.39714035	     14.85032297	    -10.81551130	     -7.49999924	    -20.79475437	      3.07160060	     -0.71450011	     20.62490652	     -4.94637263	     30.45050255	     17.18159220	     63.87569243	     12.17879279	     -5.50630691	     25.92050587	     19.16290033	     68.86610741
